<svg xmlns="http://www.w3.org/2000/svg" viewBox="0 0 77.6 18.05"><g id="레이어_2" data-name="레이어 2"><g id="Layer_1" data-name="Layer 1"><g id="그룹_367" data-name="그룹 367"><g id="그룹_421" data-name="그룹 421"><path id="패스_184" data-name="패스 184" d="M21.25,10.22h2.1v-8h-2.1Z"/><path id="패스_185" data-name="패스 185" d="M28.82,10.06a3.7,3.7,0,1,0-3.7-3.69A3.69,3.69,0,0,0,28.82,10.06Zm0-5.28a1.59,1.59,0,1,1-1.58,1.59,1.59,1.59,0,0,1,1.58-1.59Z"/><path d="M63.43,2.36V4.65h-.82a3.31,3.31,0,0,0-3-2.45c-1.79,0-3.24,1.76-3.24,3.93s1.45,3.93,3.24,3.93a3.51,3.51,0,0,0,3.2-3.3h.62V10.2H65V2.36ZM59.61,7.94c-.7,0-1.29-.83-1.29-1.81s.59-1.8,1.29-1.8,1.29.82,1.29,1.8S60.3,7.94,59.61,7.94Z"/><path id="패스_187" data-name="패스 187" d="M54.12,2.26H52V10.2h2.11V7.68h1.05V5.57H54.12Z"/><path id="패스_188" data-name="패스 188" d="M7.74,6.64H6.26V8.33H5V6.64H3.52V8.33H0v2.1L11.27,10V8.33H7.74Z"/><path id="패스_189" data-name="패스 189" d="M75.49,2.37V4.65h-2V6.76h2v3.45H77.6V2.36Z"/><rect id="사각형_218" data-name="사각형 218" x="65.38" y="2.37" width="1.57" height="7.83"/><path id="패스_191" data-name="패스 191" d="M19.77,10.35A3.7,3.7,0,1,0,23.46,14,3.71,3.71,0,0,0,19.77,10.35Zm0,5.28a1.59,1.59,0,1,1,1.58-1.58A1.59,1.59,0,0,1,19.77,15.63Z"/><path id="패스_192" data-name="패스 192" d="M50.45,10.35A3.7,3.7,0,1,0,54.15,14,3.7,3.7,0,0,0,50.45,10.35Zm0,5.28A1.59,1.59,0,1,1,52,14.05,1.6,1.6,0,0,1,50.45,15.63Z"/><path id="패스_193" data-name="패스 193" d="M40.53,10.35A3.7,3.7,0,1,0,44.23,14,3.7,3.7,0,0,0,40.53,10.35Zm0,5.28a1.59,1.59,0,1,1,1.59-1.58A1.6,1.6,0,0,1,40.53,15.63Z"/><path id="패스_194" data-name="패스 194" d="M39.84,9.13l2,.75a18.58,18.58,0,0,0,1-6.31l0-1H33.65v2.1h7.07A16,16,0,0,1,39.84,9.13Z"/><rect id="사각형_219" data-name="사각형 219" x="35.76" y="6.97" width="2.11" height="3.17"/><path id="패스_195" data-name="패스 195" d="M20.4,7.1c-.47.14-1,.25-1.49.35a18.9,18.9,0,0,0,.34-2.72H20.4V2.63H12v2.1h1.83V8c-1,.05-1.72,0-1.73,0L12,10h.13a37.94,37.94,0,0,0,8.23-.9Zm-3.28.65c-.57.07-1.12.13-1.64.17V4.73h2.08A18,18,0,0,1,17.12,7.75Z"/><path id="패스_197" data-name="패스 197" d="M31.06,15.2c2.9.05,3.46-.38,3.46-.85V10.88H25v1.9h7.65v.72H25.73v3.68c2.12,1.71,9.53.36,9.53.36V15.65s-5.77,1-7.5.28c0,0,0-.56,0-.79Z"/><path id="패스_198" data-name="패스 198" d="M72,4.94V2.65H69.92V4.94a2.59,2.59,0,0,1-1,2.4,2.83,2.83,0,0,1-1.19.42l.09,2.1A4.86,4.86,0,0,0,71,8.27a4.81,4.81,0,0,0,3.2,1.59l.09-2.1a2.83,2.83,0,0,1-1.19-.42A2.6,2.6,0,0,1,72,4.94Z"/><path id="패스_199" data-name="패스 199" d="M47.84,8.27A4.87,4.87,0,0,0,51,9.87l.09-2.11a2.69,2.69,0,0,1-1.19-.41,2.61,2.61,0,0,1-1-2.41V4.66h2.35V2.55H44.33V4.66h2.45V5a2.61,2.61,0,0,1-1.05,2.4,2.69,2.69,0,0,1-1.19.41l.09,2.11A4.92,4.92,0,0,0,47.84,8.27Z"/><path id="패스_200" data-name="패스 200" d="M.61,6.92h0A6.64,6.64,0,0,0,4.93,5.11a6.48,6.48,0,0,0,.77-1,5.44,5.44,0,0,0,.76,1,6.59,6.59,0,0,0,4.32,1.81h0V4.81A4.44,4.44,0,0,1,8,3.62,4.9,4.9,0,0,1,6.75,0h0V0H4.64V0h0c0,4.62-3.61,4.79-4,4.8v2.1Z"/></g></g></g></g></svg>